# xmcd CD database file
#
# Track frame offsets:
#	150
#	18715
#	36477
#	54315
#	74312
#	90495
#	110565
#	127530
#	146745
#	165485
#
# Disc length: 2543 seconds
#
# Revision: 0
# Processed by: cddbd v1.5PL3 Copyright (c) Steve Scherf et al.
# Submitted via: CDex 1.51
#
DISCID=8209ed0a
DTITLE=吉川晃司 - HOT ROD
DYEAR=1999
DGENRE=Rock
TTITLE0=CRY/MARIA -不覚なキス-
TTITLE1=ギラギラ
TTITLE2=LOVIN' NOISE
TTITLE3=宵闇にまかせて -KISS and KISS-
TTITLE4=HOT ROD
TTITLE5=FLASHBACK
TTITLE6=Wired-Boy
TTITLE7=Glow In The Dark(Album Mix)
TTITLE8=Loving Grooving
TTITLE9=この雨の終わりに
EXTD=YEAR: 1999
EXTT0=
EXTT1=
EXTT2=
EXTT3=
EXTT4=
EXTT5=
EXTT6=
EXTT7=
EXTT8=
EXTT9=
PLAYORDER=
